# AST/ASF file generated using VICON BodyLanguage
# -----------------------------------------------
:version 1.10
:name VICON
:units
  mass 1.0
  length 0.45
  angle deg
:documentation
   .ast/.asf automatically generated from VICON data using
   VICON BodyBuilder and BodyLanguage model FoxedUp or BRILLIANT.MOD
:root
   order TX TY TZ RX RY RZ
   axis XYZ
   position 0 0 0  
   orientation 0 0 0 
:bonedata
  begin
     id 1 
     name lhipjoint
     direction 0.537252 -0.787203 0.302774 
     length 2.29576 
     axis 0 0 0  XYZ
  end
  begin
     id 2 
     name lfemur
     direction 0.34202 -0.939693 0  
     length 7.31114  
     axis 0 0 20  XYZ
    dof rx ry rz
    limits (-160.0 20.0)
           (-70.0 70.0)
           (-60.0 70.0)
  end
  begin
     id 3 
     name ltibia
     direction 0.34202 -0.939693 0   
     length 8.36008   
     axis 0 0 20   XYZ
    dof rx
    limits (-10.0 170.0)
  end
  begin
     id 4 
     name lfoot
     direction 0.0969116 -0.266263 0.959016   
     length 2.16704   
     axis -90 7.62852e-016 20   XYZ
    dof rx rz
    limits (-45.0 90.0)
           (-70.0 20.0)
  end
  begin
     id 5 
     name ltoes
     direction 1.53563e-011 -4.21779e-011 1   
     length 1.08338   
     axis -90 7.62852e-016 20   XYZ
    dof rx
    limits (-90.0 20.0)
  end
  begin
     id 6 
     name rhipjoint
     direction -0.588228 -0.754791 0.290308   
     length 2.39434  
     axis 0 0 0  XYZ 
  end
  begin
     id 7 
     name rfemur
     direction -0.34202 -0.939693 0   
     length 7.45207   
     axis 0 0 -20   XYZ
    dof rx ry rz
    limits (-160.0 20.0)
           (-70.0 70.0)
           (-70.0 60.0)
  end
  begin
     id 8 
     name rtibia
     direction -0.34202 -0.939693 0   
     length 8.03565   
     axis 0 0 -20   XYZ
    dof rx
    limits (-10.0 170.0)
 end
 begin
     id 9 
     name rfoot
     direction -0.107009 -0.294004 0.949795   
     length 2.11509  
     axis -90 -7.62852e-016 -20   XYZ
    dof rx rz
    limits (-45.0 90.0)
           (-20.0 70.0)
  end
  begin
     id 10 
     name rtoes
     direction -1.53533e-011 -4.22004e-011 1   
     length 1.05493   
     axis -90 -7.62852e-016 -20   XYZ
    dof rx
    limits (-90.0 20.0)
  end
  begin
     id 11 
     name lowerback
     direction -0.0115208 0.997969 -0.0626515   
     length 2.03153   
     axis 0 0 0   XYZ
    dof rx ry rz
    limits (-20.0 45.0)
           (-30.0 30.0)
           (-30.0 30.0)
  end
  begin
     id 12 
     name upperback
     direction -0.00423475 0.999974 -0.00583614   
     length 2.03619   
     axis 0 0 0   XYZ
    dof rx ry rz
    limits (-20.0 45.0)
           (-30.0 30.0)
           (-30.0 30.0)
  end
  begin
     id 13 
     name thorax
     direction 0.00289429 0.999728 0.0231573   
     length 2.03921   
     axis 0 0 0   XYZ
    dof rx ry rz
    limits (-20.0 45.0)
           (-30.0 30.0)
           (-30.0 30.0)
  end
  begin
     id 14 
     name lowerneck
     direction 0.0188995 0.987777 0.154721   
     length 1.78836   
     axis 0 0 0   XYZ
    dof rx ry rz
    limits (-20.0 45.0)
           (-30.0 30.0)
           (-30.0 30.0)
  end
  begin
     id 15 
     name upperneck
     direction -0.00612612 0.992995 -0.118   
     length 1.81789   
     axis 0 0 0   XYZ
    dof rx ry rz
    limits (-20.0 45.0)
           (-30.0 30.0)
           (-30.0 30.0)
  end
  begin
     id 16
     name head
     direction -0.00420226 0.998397 -0.0564482  
     length 1.82234  
     axis 0 0 0   XYZ
    dof rx ry rz
    limits (-20.0 45.0)
           (-30.0 30.0)
           (-30.0 30.0)
  end
  begin
     id 17 
     name lclavicle
     direction 0.916488 0.396539 0.0529676  
     length 3.51732  
     axis 0 0 0   XYZ
    dof ry rz
    limits (-20.0 10.0)
           (0.0 20.0)
  end
  begin
     id 18 
     name lhumerus
     direction 1 -4.4896e-011 8.36962e-028   
     length 5.45077   
     axis 180 -30 -90   XYZ
    dof rx ry rz
    limits (-60.0 90.0)
           (-90.0 90.0)
           (-90.0 90.0)
  end
  begin
     id 19
     name lradius
     direction 1 -4.48962e-011 3.01407e-027   
     length 3.05488   
     axis 180 -30 -90   XYZ
    dof rx
    limits (-10.0 170.0)
  end
  begin
     id 20
     name lwrist
     direction 1 -4.49002e-011 4.72961e-027   
     length 1.52744   
     axis -2.72261e-015 90 90   XYZ
    dof ry
    limits (-180.0 0.0)
 end
  begin
     id 21 
     name lhand
     direction 1 -4.4899e-011 9.45681e-027   
     length 0.638818   
     axis -6.0311e-015 90 90   XYZ
    dof rx rz
    limits (-90.0 90.0)
           (-45.0 45.0)
  end
  begin
     id 22 
     name lfingers
     direction 1 -4.48871e-011 1.88632e-026   
     length 0.515032   
     axis -1.20625e-014 90 90   XYZ
    dof rx
    limits (0.0 90.0)
  end
  begin
     id 23
     name lthumb
     direction 0.707107 -6.34964e-011 0.707107   
     length 0.739485   
     axis -90 45 6.32835e-014   XYZ
    dof rx rz
    limits (-45.0 45.0)
           (-45.0 45.0)
  end
  begin
     id 24 
     name rclavicle
     direction -0.949427 0.303202 0.0815894   
     length 3.76167  
     axis 0 0 0   XYZ 
    dof ry rz
    limits (-10.0 20.0)
           (-20.0 0.0)
  end
  begin
     id 25 
     name rhumerus
     direction -1 -4.48971e-011 -6.43969e-018  
     length 4.88702   
     axis 180 30 90   XYZ
    dof rx ry rz
    limits (-90.0 60.0)
           (-90.0 90.0)
           (-90.0 90.0)
  end
  begin
     id 26 
     name rradius
     direction -1 -4.48987e-011 5.46662e-027   
     length 3.22603   
     axis 180 30 90   XYZ
    dof rx
    limits (-10.0 170.0)
  end
  begin
     id 27 
     name rwrist
     direction -1 -4.48956e-011 4.72476e-027   
     length 1.61302   
     axis -2.72261e-015 -90 -90   XYZ
    dof ry
    limits (-180.0 0.0)
  end
  begin
     id 28
     name rhand
     direction -1 -4.4889e-011 9.43571e-027   
     length 0.716293   
     axis -6.0311e-015 -90 -90   XYZ
    dof rx rz
    limits (-90.0 90.0)
           (-45.0 45.0)
  end
  begin
     id 29
     name rfingers
     direction -1 -4.48887e-011 1.88701e-026   
     length 0.577494   
     axis -1.20625e-014 -90 -90   XYZ
    dof rx
    limits (0.0 90.0)
  end
  begin
     id 30
     name rthumb
     direction -0.707107 -6.34825e-011 0.707107   
     length 0.829169   
     axis -90 -45 -6.32835e-014   XYZ
    dof rx rz
    limits (-45.0 45.0)
           (-45.0 45.0)
  end
:hierarchy
  begin
    root lhipjoint rhipjoint lowerback
    lhipjoint lfemur
    lfemur ltibia
    ltibia lfoot
    lfoot ltoes
    rhipjoint rfemur
    rfemur rtibia
    rtibia rfoot
    rfoot rtoes
    lowerback upperback
    upperback thorax
    thorax lowerneck lclavicle rclavicle
    lowerneck upperneck
    upperneck head
    lclavicle lhumerus
    lhumerus lradius
    lradius lwrist
    lwrist lhand lthumb
    lhand lfingers
    rclavicle rhumerus
    rhumerus rradius
    rradius rwrist
    rwrist rhand rthumb
    rhand rfingers
  end

#!OML:ASF F:\VICON\USERDATA\INSTALL\rory3\rory3.ASF
:FULLY-SPECIFIED
:DEGREES
3490
root 1.31384 18.5317 -0.0375317 -345.141 67.0627 -354.928
lowerback -11.968 -1.58708 -0.752303
upperback -1.63239 -1.96105 -0.051487
thorax 5.0202 -0.960835 0.0565962
lowerneck -18.0899 -2.25055 0.392633
upperneck 24.5462 -3.43608 1.1044
head 10.9361 -1.31424 -0.154232
rclavicle 4.23225e-014 -1.15295e-014
rhumerus 49.7136 -0.313532 -84.3494
rradius 30.1481
rwrist 235.757
rhand -24.0219 -4.39547
rfingers 7.12502
rthumb 2.45625 -34.3611
lclavicle 4.23225e-014 -1.15295e-014
lhumerus 35.4913 -35.8211 54.4908
lradius 70.6516
lwrist 9.44786
lhand -14.868 36.8107
lfingers 7.12502
lthumb 11.292 66.4867
rfemur -10.0938 14.4557 10.188
rtibia 1.11319e-014
rfoot -0.849034 5.64855
rtoes -1.08656
lfemur -11.4849 13.8661 -24.5786
ltibia 17.1567
lfoot -15.8979 11.6034
ltoes -23.6808
3491
root 1.31687 18.5303 -0.0433257 -345.344 66.6441 -355.091
lowerback -11.9171 -1.60046 -0.771023
upperback -1.68164 -1.97932 -0.00186963
thorax 4.94286 -0.970343 0.118335
lowerneck -17.8845 -2.146 0.39383
upperneck 24.4805 -3.26684 1.04116
head 10.8697 -1.24755 -0.149774
rclavicle 8.44835e-016 3.18055e-015
rhumerus 49.4712 -0.164016 -83.7852
rradius 30.3278
rwrist 235.354
rhand -23.9671 -4.42585
rfingers 7.12502
rthumb 2.50911 -34.3908
lclavicle 8.44835e-016 3.18055e-015
lhumerus 35.2022 -35.8414 54.7467
lradius 70.6958
lwrist 9.26681
lhand -14.8832 37.0023
lfingers 7.12502
lthumb 11.2774 66.6792
rfemur -10.1563 14.8739 10.1116
rtibia 2.5842e-015
rfoot -0.837979 5.64017
rtoes -1.20663
lfemur -11.409 14.1339 -24.6116
ltibia 17.1371
lfoot -15.9311 11.6795
ltoes -23.7303
3492
root 1.31995 18.5284 -0.0502638 -345.414 66.2284 -355.084
lowerback -11.8182 -1.61629 -0.851895
upperback -1.69907 -1.99275 0.021799
thorax 4.87357 -0.978788 0.189472
lowerneck -17.7966 -2.06161 0.470961
upperneck 24.3873 -3.13413 0.911004
head 10.8135 -1.19911 -0.189008
rclavicle 5.71506e-016 -1.03368e-014
rhumerus 49.3222 -0.00236384 -83.1584
rradius 30.4859
rwrist 234.942
rhand -24.043 -4.5185
rfingers 7.12502
rthumb 2.43583 -34.4843
lclavicle 5.71506e-016 -1.03368e-014
lhumerus 35.0355 -35.7891 54.8934
lradius 70.7425
lwrist 9.09291
lhand -14.4996 37.0809
lfingers 7.12502
lthumb 11.6474 66.7371
rfemur -10.1883 15.2718 9.95587
rtibia 9.14409e-015
rfoot -0.798568 5.60057
rtoes -0.802075
lfemur -11.2979 14.3373 -24.7083
ltibia 17.1207
lfoot -16.0276 11.7383
ltoes -23.4646
3493
root 1.31986 18.527 -0.0568233 -345.421 65.9014 -355.047
lowerback -11.6904 -1.6598 -0.931583
upperback -1.74947 -2.04258 0.0363872
thorax 4.75384 -1.00463 0.246193
lowerneck -17.7185 -1.95345 0.597137
upperneck 24.3224 -2.97919 0.768004
head 10.7691 -1.1367 -0.238148
rclavicle 7.69048e-015 -1.33186e-014
rhumerus 49.2203 0.0361453 -82.9267
rradius 30.542
rwrist 234.869
rhand -24.3251 -4.52745
rfingers 7.12502
rthumb 2.1634 -34.4962
lclavicle 7.69048e-015 -1.33186e-014
lhumerus 34.9539 -35.8202 54.9097
lradius 70.7537
lwrist 9.2492
lhand -14.483 36.9689
lfingers 7.12502
lthumb 11.6633 66.6243
rfemur -10.2505 15.5779 9.81363
rtibia -2.10712e-014
rfoot -0.777332 5.56012
rtoes -0.547483
lfemur -11.254 14.3973 -24.8008
ltibia 17.1102
lfoot -16.0373 11.9133
ltoes -23.2373
3494
root 1.31772 18.525 -0.0609967 -345.449 65.6245 -355.059
lowerback -11.5889 -1.67951 -1.0232
upperback -1.79064 -2.05943 0.0543154
thorax 4.65869 -1.01434 0.317452
lowerneck -17.7166 -1.87555 0.649188
upperneck 24.3174 -2.87453 0.728388
head 10.7653 -1.08952 -0.246124
rclavicle -2.73764e-014 -1.37161e-014
rhumerus 49.137 -0.10734 -82.8735
rradius 30.5295
rwrist 235.02
rhand -24.4283 -4.54278
rfingers 7.12502
rthumb 2.06369 -34.5125
lclavicle -2.73764e-014 -1.37161e-014
lhumerus 34.9561 -36.024 54.9171
lradius 70.9152
lwrist 9.45211
lhand -14.5625 37.1957
lfingers 7.12502
lthumb 11.5866 66.8554
rfemur -10.3259 15.841 9.71807
rtibia -2.78299e-015
rfoot -0.753023 5.51912
rtoes -0.285437
lfemur -11.2481 14.4885 -24.8558
ltibia 17.1046
lfoot -15.9992 12.0465
ltoes -23.5725
3495
root 1.31902 18.5236 -0.0671943 -345.412 65.3895 -355.068
lowerback -11.8482 -1.69914 -0.945016
upperback -1.65348 -2.08877 -0.031903
thorax 4.94048 -1.02808 0.168719
lowerneck -17.7909 -1.78111 0.806457
upperneck 24.1167 -2.79335 0.734573
head 10.7034 -1.04184 -0.258771
rclavicle -5.32308e-014 -2.28602e-014
rhumerus 49.3297 -0.357746 -83.108
rradius 30.4458
rwrist 235.357
rhand -24.0994 -4.6478
rfingers 7.12502
rthumb 2.38132 -34.6143
lclavicle -5.32308e-014 -2.28602e-014
lhumerus 35.216 -35.9511 54.7382
lradius 71.0255
lwrist 8.92048
lhand -13.5672 37.4778
lfingers 7.12502
lthumb 12.5464 67.0811
rfemur -10.4404 16.0524 9.61441
rtibia 1.11319e-014
rfoot -0.78509 5.46386
rtoes -0.719737
lfemur -11.3128 14.624 -24.9329
ltibia 17.1154
lfoot -15.9819 12.1081
ltoes -23.7302
3496
root 1.32287 18.5227 -0.0726443 -345.521 65.1102 -355.157
lowerback -11.8301 -1.72149 -0.918084
upperback -1.65338 -2.12261 -0.028453
thorax 4.93009 -1.04446 0.1523
lowerneck -17.7742 -1.68965 0.849204
upperneck 24.065 -2.67415 0.722367
head 10.6805 -0.986515 -0.252983
rclavicle -8.9422e-014 9.74045e-015
rhumerus 49.2807 -0.364552 -82.9713
rradius 30.473
rwrist 235.274
rhand -23.9826 -4.53501
rfingers 7.12502
rthumb 2.49418 -34.5002
lclavicle -8.9422e-014 9.74045e-015
lhumerus 35.067 -35.7055 55.0952
lradius 70.9761
lwrist 7.59097
lhand -11.3889 37.1087
lfingers 7.12502
lthumb 14.6459 66.5715
rfemur -10.4728 16.3286 9.55547
rtibia -4.37326e-015
rfoot -0.841984 5.45427
rtoes -1.15605
lfemur -11.2545 14.6466 -24.9511
ltibia 17.1168
lfoot -16.0721 12.2672
ltoes -23.3836
3497
root 1.32567 18.522 -0.0778166 -345.711 64.8321 -355.307
lowerback -11.7555 -1.75067 -0.875295
upperback -1.67894 -2.16823 -0.0208659
thorax 4.86115 -1.06626 0.131681
lowerneck -17.6867 -1.60119 0.926993
upperneck 24.0086 -2.56351 0.694769
head 10.6415 -0.933847 -0.259104
rclavicle 3.76262e-014 5.96354e-016
rhumerus 49.1872 -0.415108 -82.9889
rradius 30.4465
rwrist 235.279
rhand -23.9418 -4.5221
rfingers 7.12502
rthumb 2.5336 -34.4868
lclavicle 3.76262e-014 5.96354e-016
lhumerus 34.7572 -35.1927 55.6176
lradius 70.9091
lwrist 5.16022
lhand -7.52088 36.1546
lfingers 7.12502
lthumb 18.3698 65.3073
rfemur -10.509 16.6127 9.52081
rtibia -1.8487e-014
rfoot -0.821542 5.44305
rtoes -0.576394
lfemur -11.1625 14.6353 -24.9347
ltibia 17.1165
lfoot -16.1942 12.4676
ltoes -23.0931
